<svg width="50" height="50" viewBox="0 0 50 50" fill="none" xmlns="http://www.w3.org/2000/svg">
<path d="M39 38H11C9.3 38 8 36.7 8 35V15C8 13.3 9.3 12 11 12H39C40.7 12 42 13.3 42 15V35C42 36.7 40.7 38 39 38ZM11 14C10.4 14 10 14.4 10 15V35C10 35.6 10.4 36 11 36H39C39.6 36 40 35.6 40 35V15C40 14.4 39.6 14 39 14H11Z" fill="black"/>
<path d="M30 24C27.8 24 26 22.2 26 20C26 17.8 27.8 16 30 16C32.2 16 34 17.8 34 20C34 22.2 32.2 24 30 24ZM30 18C28.9 18 28 18.9 28 20C28 21.1 28.9 22 30 22C31.1 22 32 21.1 32 20C32 18.9 31.1 18 30 18Z" fill="black"/>
<path d="M35.3 37.7L19 22.4L9.69999 31L8.29999 29.6L19 19.6L36.7 36.3L35.3 37.7Z" fill="black"/>
<path d="M40.4 32.7L35 28.2999L30.5 32L29.2 30.4L35 25.7L41.6 31.1L40.4 32.7Z" fill="black"/>
</svg>
