<svg width="50" height="50" viewBox="0 0 50 50" fill="none" xmlns="http://www.w3.org/2000/svg">
<path d="M25 42C15.6 42 8 34.4 8 25C8 15.6 15.6 8 25 8C34.4 8 42 15.6 42 25C42 34.4 34.4 42 25 42ZM25 10C16.7 10 10 16.7 10 25C10 33.3 16.7 40 25 40C33.3 40 40 33.3 40 25C40 16.7 33.3 10 25 10Z" fill="black"/>
<path d="M19.8 19.6C20.1 18.8 20.4 18.2 21 17.7C21.5 17.2 22.1 16.8 22.9 16.5C23.7 16.2 24.5 16.1 25.4 16.1C26.1 16.1 26.8 16.2 27.4 16.4C28 16.6 28.6 16.9 29.1 17.3C29.6 17.7 30 18.2 30.2 18.8C30.5 19.4 30.6 20.1 30.6 20.8C30.6 21.8 30.4 22.6 30 23.3C29.6 24 29 24.6 28.4 25.3L27.1 26.6C26.8 26.9 26.5 27.2 26.4 27.5C26.2 27.8 26.1 28.2 26.1 28.6C26 29 26 29.3 26 30.1H24.4C24.4 29.3 24.4 29 24.5 28.4C24.6 27.9 24.8 27.4 25 26.9C25.2 26.5 25.5 26.1 25.9 25.7C26.3 25.3 26.8 24.9 27.3 24.3C27.8 23.8 28.2 23.3 28.5 22.8C28.8 22.3 29 21.6 29 21C29 20.5 28.9 20 28.7 19.6C28.5 19.2 28.2 18.8 27.9 18.5C27.6 18.2 27.2 18 26.7 17.8C26.2 17.6 25.8 17.5 25.3 17.5C24.6 17.5 24 17.6 23.5 17.9C23 18.1 22.5 18.5 22.2 18.9C21.9 19.3 21.6 19.8 21.4 20.4C21.2 21 21 21.3 21 22H19.4C19.4 21.1 19.5 20.4 19.8 19.6V19.6ZM26 32V34H24V32H26Z" fill="black"/>
</svg>
