<svg width="40" height="40" viewBox="0 0 40 40" fill="none" xmlns="http://www.w3.org/2000/svg">
<g clip-path="url(#clip0_30_10)">
<path d="M1.86124 7.80003C0.83364 7.80003 0 8.63323 0 9.66127V31.0588C0 32.0867 0.83376 32.92 1.86124 32.92H38.1388C39.1664 32.92 40 32.0868 40 31.0588V9.66123C40 8.63335 39.1663 7.79999 38.1388 7.79999H1.8612L1.86124 7.80003ZM13.1162 10.8238C15.3995 10.8238 17.4964 11.6181 19.1425 12.945C17.7576 14.1842 16.7246 15.8122 16.215 17.6575H17.0138C17.4842 16.1352 18.3387 14.7799 19.465 13.705C20.5913 14.7799 21.4458 16.1352 21.9162 17.6575H22.7275C22.2108 15.8219 21.1764 14.2036 19.7925 12.9725C21.4417 11.6288 23.5469 10.8237 25.84 10.8237C31.1316 10.8237 35.4212 15.1138 35.4212 20.4063C35.4212 25.6987 31.1316 29.9888 25.84 29.9888C23.5088 29.9888 21.3712 29.1567 19.71 27.7725C21.196 26.4797 22.2915 24.7466 22.7925 22.775H22.0112C21.5664 24.4298 20.671 25.9016 19.465 27.0525C18.259 25.9016 17.3648 24.4298 16.92 22.775H16.1762C16.6801 24.7181 17.7613 26.4269 19.225 27.7075C17.5668 29.0746 15.4376 29.8963 13.1162 29.8963C7.8246 29.8963 3.535 25.6268 3.535 20.36C3.535 15.0932 7.8246 10.8238 13.1162 10.8238ZM25.1212 17.56C23.97 17.56 22.85 18.5665 22.85 20.4563C22.85 21.7094 23.455 22.5363 24.645 22.5363C24.9815 22.5364 25.5175 22.3988 25.5175 22.3988L25.695 21.3038C25.695 21.3038 25.2058 21.5513 24.87 21.5513C24.1626 21.5513 23.8788 21.0072 23.8788 20.4225C23.8788 19.2364 24.4874 18.5837 25.165 18.5837C25.6731 18.5837 26.0812 18.8713 26.0812 18.8713L26.2438 17.8063C26.2438 17.8063 25.6396 17.56 25.1212 17.56H25.1212ZM34.8 17.6525L33.7988 17.655L33.5838 18.9725C33.5838 18.9725 33.2074 18.4613 32.6188 18.4613C31.7036 18.4613 30.9412 19.5485 30.9412 20.7988C30.9412 21.6059 31.347 22.3975 32.1788 22.3975C32.7771 22.3975 33.1088 21.9863 33.1088 21.9863L33.065 22.3375H34.0375L34.8 17.6525ZM6.12248 17.6663L5.325 22.3625H6.28624L6.89376 18.8213L6.98376 22.3625H7.67124L8.95376 18.8213L8.385 22.3625H9.40624L10.1938 17.6663H8.61376L7.63 20.5475L7.57876 17.6663H6.12252L6.12248 17.6663ZM16.165 17.9713C16.1433 17.9931 15.5838 21.2195 15.5838 21.6125C15.5838 22.1943 15.9099 22.4542 16.3688 22.45C16.6976 22.4472 16.9522 22.3646 17.07 22.33C17.0823 22.3267 17.1062 22.32 17.1062 22.32L17.23 21.48C17.1627 21.48 17.0636 21.5088 16.9762 21.5088C16.6336 21.5088 16.5957 21.3265 16.6175 21.1913L16.8938 19.4775H17.415L17.5412 18.5487H17.05L17.15 17.9713H16.165V17.9713ZM27.7838 18.4438C27.1128 18.4438 26.5988 18.665 26.5988 18.665L26.4562 19.5275C26.4562 19.5275 26.8808 19.3513 27.5225 19.3513C27.8868 19.3513 28.1537 19.3929 28.1537 19.6963C28.1537 19.8805 28.1212 19.9488 28.1212 19.9488C28.1212 19.9488 27.8332 19.9238 27.7 19.9238C26.8539 19.9238 25.965 20.2946 25.965 21.41C25.965 22.2889 26.5486 22.49 26.91 22.49C27.6003 22.49 27.898 22.0314 27.9138 22.03L27.8812 22.4125H28.7425L29.1275 19.6525C29.1276 18.4814 28.1302 18.4437 27.7838 18.4437V18.4438ZM11.6275 18.4488C10.9541 18.4488 10.4375 18.67 10.4375 18.67L10.295 19.5325C10.295 19.5325 10.721 19.3563 11.365 19.3563C11.7307 19.3563 11.9988 19.3981 11.9988 19.7013C11.9988 19.8854 11.9662 19.9538 11.9662 19.9538C11.9662 19.9538 11.6773 19.9288 11.5438 19.9288C10.6944 19.9288 9.80252 20.299 9.80252 21.4138C9.80252 22.2922 10.3872 22.4938 10.75 22.4938C11.4428 22.4938 11.7416 22.0351 11.7575 22.0338L11.725 22.4163H12.59L12.9762 19.6575C12.9762 18.4871 11.9752 18.4487 11.6275 18.4487V18.4488ZM14.6825 18.4488C13.9594 18.4488 13.225 18.7407 13.225 19.7375C13.225 20.8671 14.4488 20.7529 14.4488 21.2287C14.4488 21.5463 14.1072 21.5725 13.8438 21.5725C13.3878 21.5725 12.9777 21.415 12.9762 21.4225L12.845 22.285C12.8686 22.2923 13.1225 22.4063 13.9425 22.4063C14.1627 22.4063 15.4212 22.4622 15.4212 21.1513C15.4212 19.9257 14.2562 20.1686 14.2562 19.6763C14.2562 19.4311 14.4454 19.3538 14.7925 19.3538C14.9303 19.3538 15.4613 19.3975 15.4613 19.3975L15.5838 18.5263C15.5838 18.5264 15.2412 18.4488 14.6825 18.4488H14.6825ZM19.2025 18.4488C18.1977 18.449 17.4538 19.5295 17.4538 20.75C17.4538 22.1588 18.3858 22.4938 19.18 22.4938C19.913 22.4938 20.2362 22.33 20.2362 22.33L20.4112 21.3688C20.4112 21.3688 19.8536 21.6138 19.35 21.6138C18.277 21.6138 18.465 20.815 18.465 20.815H20.4962C20.4962 20.815 20.6275 20.1695 20.6275 19.9063C20.6275 19.2495 20.2997 18.4488 19.2025 18.4488H19.2025ZM22.8413 18.49C22.3886 18.49 22.0525 19.0988 22.0525 19.0988L22.1425 18.54H21.2025L20.5713 22.3975H21.61C21.9042 20.7503 21.9579 19.4127 22.66 19.6575C22.7829 19.0199 22.9021 18.7736 23.0362 18.5038C23.0362 18.5038 22.9732 18.49 22.8412 18.49H22.8413ZM31.2575 18.49C30.8048 18.49 30.4688 19.0988 30.4688 19.0988L30.5588 18.54H29.6188L28.9875 22.3975H30.025C30.3193 20.7503 30.3744 19.4127 31.0762 19.6575C31.1994 19.0199 31.3185 18.7736 31.4525 18.5038C31.4525 18.5038 31.3895 18.49 31.2575 18.49H31.2575ZM19.1975 19.3188C19.7682 19.3188 19.6638 19.9629 19.6638 20.015H18.54C18.54 19.9485 18.6463 19.3188 19.1975 19.3188H19.1975ZM32.7763 19.3938C33.1395 19.3937 33.3263 19.639 33.3263 20.2163C33.3263 20.74 33.0621 21.44 32.515 21.44C32.1519 21.44 31.9812 21.1401 31.9812 20.67C31.9812 19.9013 32.3329 19.3938 32.7762 19.3938H32.7763ZM27.785 20.7063C27.9332 20.7065 27.9638 20.7209 27.9888 20.7275C27.9852 20.7269 27.9845 20.7276 27.9988 20.73C28.0175 20.9018 27.895 21.7075 27.3025 21.7075C26.997 21.7075 26.9188 21.4646 26.9188 21.3213C26.9188 21.0417 27.0643 20.7063 27.785 20.7063ZM11.6288 20.71C11.797 20.7102 11.8154 20.729 11.8438 20.7338C11.8626 20.9055 11.7395 21.71 11.145 21.71C10.8383 21.71 10.7588 21.4683 10.7588 21.325C10.7588 21.0457 10.9052 20.71 11.6288 20.71Z" fill="white"/>
</g>
<defs>
<clipPath id="clip0_30_10">
<rect width="40" height="40" fill="white"/>
</clipPath>
</defs>
</svg>
