<svg width="25" height="25" viewBox="0 0 25 25" fill="none" xmlns="http://www.w3.org/2000/svg">
<path d="M0 0V25H25V0H0ZM20 8.75V9.21875C20 14.375 16.0938 20.1562 9.0625 20.1562C6.875 20.1562 4.84375 19.5313 3.125 18.4375H4.0625C5.9375 18.4375 7.5 17.8125 8.90625 16.7187C7.1875 16.7187 5.78125 15.625 5.3125 14.0625H6.09375C6.40625 14.0625 6.71875 14.0625 7.03125 13.9062C5.3125 13.5937 3.90625 12.0313 3.90625 10.1562C4.375 10.4688 5 10.625 5.625 10.625C4.53125 10 3.90625 8.75 3.90625 7.5C3.90625 6.71875 4.0625 6.09375 4.375 5.625C6.25 7.96875 9.21875 9.375 12.3438 9.53125C12.3438 9.21875 12.1875 8.90625 12.1875 8.59375C12.1875 6.40625 13.9063 4.6875 16.0938 4.6875C17.1875 4.6875 18.125 5.15625 18.9063 5.9375C19.8438 5.78125 20.625 5.46875 21.4062 5C21.0937 5.9375 20.4688 6.71875 19.6875 7.1875C20.4688 7.03125 21.25 6.875 21.875 6.5625C21.4062 7.5 20.7813 8.125 20 8.75V8.75Z" fill="white"/>
</svg>
