<svg width="53" height="53" viewBox="0 0 53 53" fill="none" xmlns="http://www.w3.org/2000/svg">
<path d="M36.5236 20.2858C35.497 19.9117 34.4119 19.724 33.3193 19.7315C29.786 19.7315 27.2906 21.5114 27.2729 24.0664C27.2508 25.9435 29.0462 27.0013 30.4043 27.6285C31.7978 28.2733 32.2637 28.6796 32.2593 29.256C32.2505 30.1327 31.1463 30.5302 30.1194 30.5302C28.7083 30.5302 27.9376 30.3337 26.7517 29.8412L26.3123 29.6358L25.811 32.5773C26.67 32.9351 28.2181 33.2421 29.8169 33.2686C33.5733 33.2686 36.0289 31.4997 36.0576 28.7812C36.0886 27.2818 35.1169 26.1489 33.072 25.2126C31.8287 24.6053 31.058 24.1989 31.058 23.5828C31.058 23.0374 31.7183 22.4544 33.0985 22.4544C34.0171 22.4321 34.9299 22.6045 35.7772 22.9601L36.1084 23.108L36.6097 20.2659L36.5236 20.2858V20.2858ZM45.6926 19.97H42.9322C42.0731 19.97 41.4261 20.2063 41.0507 21.0587L35.7419 33.0853H39.4982L40.2491 31.1132L44.8336 31.1176C44.9418 31.5792 45.273 33.0853 45.273 33.0853H48.5855L45.6926 19.97V19.97ZM22.1915 19.8596H25.7712L23.532 32.9815H19.9567L22.1915 19.8551V19.8596V19.8596ZM13.1042 27.0918L13.4752 28.9137L16.9732 19.97H20.7649L15.1315 33.0676H11.3486L8.25694 21.9774C8.20687 21.7945 8.08927 21.6374 7.9279 21.5379C6.81358 20.9623 5.63288 20.5254 4.41223 20.2372L4.46081 19.9611H10.2224C11.0041 19.9921 11.6335 20.2372 11.8433 21.0719L13.102 27.0985V27.0918H13.1042ZM41.2759 28.4301L42.7025 24.7599C42.6849 24.7996 42.9962 24.0024 43.1773 23.5099L43.4224 24.6428L44.2506 28.4279H41.2737V28.4301H41.2759Z" fill="grey"/>
</svg>
