<svg width="25" height="25" viewBox="0 0 25 25" fill="none" xmlns="http://www.w3.org/2000/svg">
<path d="M0 0V25H25V0H0ZM11.0977 6.68488C11.8056 6.67754 12.4979 6.75602 12.8357 6.76575C14.0878 6.80179 14.3089 7.43506 14.2929 7.95594C14.2695 8.71879 13.7786 11.9457 14.6881 12.2604C16.0133 11.5518 16.902 9.35088 17.5491 7.95594C17.8765 7.25035 17.8247 7.21529 18.5791 7.21435L21.5759 7.20977C22.2976 7.20888 22.2694 7.18356 22.5006 7.47833C23.0383 8.16392 20.8038 11.0157 20.0821 11.8042C18.7502 13.2594 19.5273 13.8229 19.7418 14.0228C20.7358 14.9496 21.6962 15.9106 22.2931 16.7969C22.7676 17.5015 22.5716 18.1575 21.968 18.1824L18.7545 18.3151C17.6882 18.359 16.03 16.4474 15.7654 16.0309C15.5513 15.6873 14.5198 15.2568 14.4226 16.1346L14.2868 17.3599C14.1881 18.2357 13.5415 18.2153 13.031 18.2372C9.49623 18.3893 8.29246 17.0435 6.51242 15.0573C5.20781 13.2123 3.96283 11.3567 2.93119 9.13383C2.6224 8.46846 2.45883 7.98035 2.41696 7.463C2.93604 7.05729 4.75806 7.23204 5.98142 7.20513C6.31602 7.19775 6.54179 7.38948 6.71842 7.77123C7.4076 9.26108 8.15923 10.7241 9.15373 12.0178C9.58683 12.4167 9.96971 12.5634 10.1608 11.7523C10.2718 11.7421 10.2629 10.3989 10.2691 9.3856C10.2735 8.6899 10.1917 7.85558 9.01335 7.47063C9.25171 6.84585 10.1876 6.69431 11.0977 6.68488V6.68488Z" fill="white"/>
</svg>
