<svg width="24" height="24" viewBox="0 0 24 24" fill="none" xmlns="http://www.w3.org/2000/svg">
<g clip-path="url(#clip0_30_6)">
<path d="M11.943 0.182007C13.815 0.182007 15.597 0.612007 17.195 1.37901C17.446 1.49201 17.698 1.62701 17.948 1.76301L16.852 2.73301L15.209 1.04101L12.377 3.52401L10.71 1.74001L5.50295 6.36801L8.83695 10.003L7.53495 11.131L10.825 14.766L9.52295 15.894L14.227 21.064L17.012 18.535L19.433 21.245C18.953 21.606 18.428 21.968 17.858 22.284C16.0578 23.2916 14.0289 23.8198 11.966 23.818C5.36595 23.817 -4.84077e-05 18.512 -4.84077e-05 11.99C-0.0230484 5.51001 5.34295 0.182007 11.943 0.182007ZM9.74995 11.268L12.605 8.73901L15.163 11.561L12.308 14.09L9.74995 11.268ZM11.783 16.144L14.615 13.594L17.195 16.415L14.34 18.944L11.783 16.144ZM7.71995 6.46001L10.574 3.93101L13.131 6.75301L10.277 9.28101L7.71995 6.46001ZM12.948 5.10501L15.072 3.20901L16.991 5.30801L14.867 7.22701L12.948 5.10501ZM16.74 13.796L18.863 11.9L20.781 14.021L18.657 15.919L16.74 13.796ZM18.612 18.063L20.736 16.166L22.653 18.266L20.53 20.184L18.612 18.063ZM19.48 8.31001L20.895 7.04601L22.174 8.44601L20.758 9.71001L19.48 8.31001ZM17.653 4.13401L19.069 2.84801L20.349 4.27001L18.931 5.53401L17.653 4.13401ZM21.283 12.487L22.699 11.223L24.001 12.623L22.563 13.887L21.283 12.487ZM14.913 9.34901L17.037 7.45301L18.955 9.55201L16.831 11.449L14.913 9.34901Z" fill="white"/>
</g>
<defs>
<clipPath id="clip0_30_6">
<rect width="24" height="24" fill="white"/>
</clipPath>
</defs>
</svg>
