<svg width="36" height="48" viewBox="0 0 36 48" fill="none" xmlns="http://www.w3.org/2000/svg">
<path fill-rule="evenodd" clip-rule="evenodd" d="M14.5 7.98613C9 12.3501 3.488 17.0781 2.25 18.4911C0.189 20.8451 0 22.0531 0 32.8511C0 43.0021 0.254 44.8701 1.829 46.2951C3.372 47.6911 6.185 47.9501 19.829 47.9501H36V33.4501V18.9501L30.1394 18.4911L26 18.9501V9.45013C26 4.22513 25.663 -0.0268721 25.25 0.000127879C24.837 0.0281279 20 3.62213 14.5 7.98613ZM20 19.2501C20 20.9221 17.972 22.9501 16.3 22.9501C14.669 22.9501 14.611 20.7391 16.2 19.1501C17.789 17.5611 20 17.6191 20 19.2501ZM31 21L30.5 36.2741L24.5 37.9811C21.2 38.9201 16.065 40.4191 13.09 41.3131C10.114 42.2061 8.012 42.6051 8.418 42.1991C8.825 41.7921 12.834 39.1681 17.329 36.3671L25.5 31.2741L25.802 26.1121C26 21 26 21 26 21H31Z" fill="lightgrey"/>
</svg>
