<svg width="24" height="32" viewBox="0 0 24 32" fill="none" xmlns="http://www.w3.org/2000/svg">
<path d="M0.55 7.99942C1.32756 8.05408 2.07365 8.31945 2.70325 8.76529C3.02679 8.99725 3.31587 9.27129 3.56235 9.57969C1.45035 13.1925 0.26235 16.6069 0.0396 19.728C-0.174849 22.8743 0.931396 25.9711 3.10695 28.3146C5.15727 30.5588 8.0673 31.8891 11.1573 31.9946C11.2908 31.9989 11.4241 32.001 11.5572 32.001C17.9339 31.9972 23.1009 26.9829 23.1 20.7994C23.1 11.1002 13.4327 1.39142 12.3294 0.315689C12.125 0.106362 11.8384 -0.00865707 11.5412 -0.000577847C11.2507 0.00172548 10.9733 0.117011 10.7712 0.319422C9.40459 1.68138 8.12633 3.12415 6.94375 4.63942C6.30279 3.3624 5.99584 1.95203 6.05 0.532756C6.05 0.238204 5.80376 -0.000577847 5.5 -0.000577847C5.19625 -0.000577847 4.95 0.238204 4.95 0.532756C4.95 6.80956 0.737 6.93276 0.55 6.93276C0.246243 6.93276 0 7.17154 0 7.46609C0 7.76064 0.246243 7.99942 0.55 7.99942ZM11.55 1.06876C12.6198 2.11196 22 11.528 22 20.7994C21.9995 23.5468 20.849 26.1762 18.8119 28.0856C16.7748 29.995 14.0257 31.0208 11.1942 30.928C8.40321 30.8317 5.77516 29.6295 3.9237 27.6021C1.94709 25.473 0.942001 22.6595 1.13685 19.801C1.3354 16.9909 2.3782 13.9093 4.21685 10.6341C4.73616 11.8239 4.98617 13.1079 4.95 14.3994C4.95 14.694 5.19625 14.9328 5.5 14.9328C5.80376 14.9328 6.05 14.694 6.05 14.3994C6.05 8.11516 10.2729 7.99942 10.45 7.99942C10.7538 7.99942 11 7.76064 11 7.46609C11 7.17154 10.7538 6.93276 10.45 6.93276C9.67244 6.8781 8.92635 6.61273 8.29675 6.16689C8.04567 5.9856 7.8157 5.77834 7.6109 5.54876C8.82259 3.97435 10.1384 2.47787 11.55 1.06876ZM5.5 4.09756C5.71653 4.71361 6.02686 5.2948 6.4207 5.82182C6.43901 5.85095 6.46019 5.87827 6.48395 5.90342C6.9971 6.56332 7.66162 7.09833 8.4249 7.46609C7.02086 8.15988 5.96589 9.37486 5.5 10.8346C5.30226 10.2789 5.02868 9.75139 4.68655 9.26609C4.67079 9.23801 4.65238 9.21141 4.63155 9.18662C4.10471 8.45583 3.39778 7.86439 2.5751 7.46609C3.97915 6.7723 5.03411 5.55733 5.5 4.09756Z" fill="grey" fill-opacity="0.4"/>
<path d="M7.36994 15.8148C7.54175 16.0576 7.88398 16.1195 8.13444 15.953C9.95094 14.7468 12.3001 14.5936 14.2668 15.553C16.2335 16.5125 17.5068 18.433 17.5906 20.5663L16.341 19.3546C16.1252 19.1525 15.7821 19.1553 15.57 19.3611C15.3578 19.5668 15.3549 19.8994 15.5633 20.1087L17.7633 22.242C17.9781 22.4502 18.3262 22.4502 18.541 22.242L20.741 20.1087C20.9494 19.8994 20.9464 19.5668 20.7343 19.3611C20.5221 19.1553 20.1791 19.1525 19.9633 19.3546L18.6895 20.586C18.613 18.0528 17.1161 15.7622 14.7865 14.6135C12.4568 13.4648 9.66628 13.6412 7.51019 15.0735C7.26055 15.2408 7.19779 15.5725 7.36994 15.8148Z" fill="grey" fill-opacity="0.4"/>
<path d="M14.9677 25.6437C13.1523 26.8494 10.8046 27.0033 8.83845 26.0455C6.87225 25.0876 5.59815 23.1693 5.51206 21.0373L6.76496 22.2431C6.90347 22.3814 7.10809 22.4364 7.30021 22.387C7.49233 22.3377 7.64206 22.1917 7.69185 22.0051C7.74165 21.8185 7.68377 21.6204 7.54046 21.4869L5.32891 19.3535C5.22125 19.2589 5.08252 19.2043 4.93731 19.1994C4.79089 19.2004 4.65094 19.258 4.54846 19.3594L2.36001 21.4927C2.1521 21.7026 2.15601 22.0353 2.3688 22.2404C2.58159 22.4456 2.9247 22.4475 3.13991 22.2447L4.41041 21.0063C4.48628 23.5399 5.98262 25.8312 8.31215 26.9809C10.6417 28.1306 13.4327 27.9553 15.5897 26.5237C15.8403 26.3571 15.9042 26.0251 15.7324 25.7821C15.5607 25.5391 15.2183 25.4771 14.9677 25.6437Z" fill="grey" fill-opacity="0.4"/>
</svg>
