<svg width="33" height="32" viewBox="0 0 33 32" fill="none" xmlns="http://www.w3.org/2000/svg">
<path d="M18.2631 23.8929C18.4688 24.0469 18.7552 24.0328 18.9447 23.8593L25.3546 17.9926C25.572 17.7935 25.5866 17.4561 25.3872 17.239C25.1878 17.0219 24.8499 17.0074 24.6324 17.2065L18.5494 22.7729L16.7675 21.4395C16.5315 21.2628 16.1966 21.3106 16.0196 21.5462C15.8426 21.7818 15.8905 22.1161 16.1265 22.2929L18.2631 23.8929Z" fill="grey" fill-opacity="0.4"/>
<path d="M0.956523 7.99951C1.71169 8.05417 2.43629 8.31954 3.04776 8.76538C3.359 8.99516 3.63737 9.26629 3.87517 9.57125C1.82186 13.1782 0.664872 16.5947 0.45014 19.728C0.241867 22.8744 1.31625 25.9712 3.42915 28.3147C5.42042 30.5589 8.24664 31.8892 11.2476 31.9947C11.3732 31.999 11.4982 32.0006 11.6216 32.0006C14.5878 31.9977 17.4314 30.8186 19.5271 28.7227C21.4454 29.0136 23.4052 28.6247 25.0664 27.6235L28.8236 31.3744C29.6649 32.1626 30.9808 32.1418 31.7966 31.3273C32.6123 30.5128 32.6332 29.1989 31.8438 28.359L28.087 24.6075C29.6542 21.9703 29.6819 18.6959 28.1598 16.0326C26.6377 13.3693 23.8002 11.7274 20.729 11.7328C20.6569 11.7328 20.5869 11.7419 20.5153 11.7435C18.4055 7.54279 15.6645 3.68899 12.3875 0.315779C12.1867 0.113176 11.913 -0.000717258 11.6274 -0.000487936H11.6205C11.3383 0.00181539 11.0689 0.117101 10.8727 0.319512C9.54832 1.67814 8.30887 3.11676 7.16132 4.62725C6.54275 3.3534 6.24636 1.94757 6.29812 0.532845C6.29812 0.238293 6.05897 -0.000487936 5.76396 -0.000487936C5.46895 -0.000487936 5.2298 0.238293 5.2298 0.532845C5.2298 6.80965 1.13814 6.93285 0.956523 6.93285C0.661515 6.93285 0.422363 7.17163 0.422363 7.46618C0.422363 7.76073 0.661515 7.99951 0.956523 7.99951ZM31.0901 29.1126C31.478 29.5334 31.4645 30.1848 31.0594 30.5892C30.6544 30.9936 30.002 31.0071 29.5805 30.6198L25.9675 27.0123C26.5315 26.5745 27.0386 26.0682 27.477 25.5051L31.0901 29.1126ZM28.2152 20.2747C28.2152 23.2982 26.3911 26.024 23.5934 27.1809C20.7957 28.3379 17.5755 27.6983 15.4343 25.5603C13.2931 23.4223 12.6527 20.207 13.8117 17.4137C14.9707 14.6204 17.7008 12.7993 20.729 12.7995C24.8618 12.8042 28.2108 16.1483 28.2152 20.2747ZM11.6296 1.06885C14.7296 4.26245 17.3409 7.89515 19.3792 11.8496C15.4408 12.4735 12.458 15.7337 12.191 19.7062C11.924 23.6786 14.4438 27.3076 18.2633 28.4512C16.3353 30.1305 13.8404 31.0158 11.2834 30.928C8.57287 30.8318 6.02051 29.6296 4.22238 27.6022C2.30269 25.4731 1.32655 22.6596 1.51579 19.8011C1.70915 16.9787 2.72352 13.8934 4.51349 10.6224C5.02135 11.8154 5.26567 13.1037 5.2298 14.3995C5.2298 14.6941 5.46895 14.9328 5.76396 14.9328C6.05897 14.9328 6.29812 14.6941 6.29812 14.3995C6.29812 8.11525 10.3994 7.99951 10.5714 7.99951C10.8664 7.99951 11.1056 7.76073 11.1056 7.46618C11.1056 7.17163 10.8664 6.93285 10.5714 6.93285C9.81623 6.87819 9.09163 6.61282 8.48016 6.16698C8.23359 5.98343 8.0079 5.77347 7.80712 5.54085C8.98363 3.96965 10.2604 2.47589 11.6296 1.06885ZM5.76396 4.09765C5.97341 4.71179 6.27373 5.29119 6.65494 5.81658C6.66303 5.83043 6.67195 5.84379 6.68165 5.85658C7.18516 6.53831 7.84443 7.09015 8.60462 7.46618C7.24101 8.15997 6.21643 9.37494 5.76396 10.8347C5.57207 10.2788 5.30617 9.75127 4.97341 9.26618C4.95568 9.23272 4.93418 9.20141 4.90931 9.17285C4.39927 8.44834 3.71679 7.86185 2.9233 7.46618C4.28691 6.77239 5.31149 5.55742 5.76396 4.09765Z" fill="grey" fill-opacity="0.4"/>
<path d="M10.1328 28.2747C4.73937 27.2955 4.18063 21.5329 4.1614 21.288C4.13677 20.9935 3.87765 20.7747 3.58264 20.7992C3.28763 20.8238 3.06845 21.0826 3.09308 21.3771C3.09896 21.4448 3.73408 28.1974 9.93995 29.3238C9.97201 29.3297 10.0046 29.3328 10.0372 29.3329C10.3136 29.3328 10.5444 29.1221 10.5691 28.8472C10.5938 28.5722 10.4048 28.3239 10.1328 28.2747Z" fill="grey" fill-opacity="0.4"/>
</svg>
