<svg width="23" height="32" viewBox="0 0 23 32" fill="none" xmlns="http://www.w3.org/2000/svg">
<path d="M10.719 31.9936C10.8458 31.9979 10.9723 32 11.0984 32C17.1751 31.9976 22.1001 26.9823 22.1001 20.7964C22.0962 19.8402 22.0111 18.8861 21.8459 17.9448C21.8459 17.9283 21.8407 17.9128 21.837 17.8963C21.4172 15.6647 20.6959 13.503 19.6935 11.4729V11.4697C17.6345 7.37089 14.9861 3.60789 11.8358 0.305047C11.4219 -0.101682 10.766 -0.101682 10.3521 0.305047C9.60998 1.06689 4.49643 6.46275 1.77903 13.0819C1.76474 13.1097 1.75315 13.1388 1.74444 13.1689C1.31501 14.2145 0.957591 15.2893 0.674769 16.3854C0.670576 16.3993 0.667956 16.4121 0.664811 16.4265C0.387044 17.5064 0.206362 18.6098 0.124998 19.723C-0.0789737 22.873 0.976684 25.9731 3.05204 28.3188C5.00543 30.5609 7.77678 31.8892 10.719 31.9936ZM18.3911 11.1933H13.7618C13.1848 11.1527 12.7371 10.6644 12.7371 10.0756C12.7371 9.48687 13.1848 8.99856 13.7618 8.95795C13.8071 8.95757 13.8523 8.96078 13.897 8.96756C14.0417 8.98944 14.1888 8.94969 14.3037 8.85765C14.4182 8.76444 14.4891 8.62668 14.4992 8.4778C14.5549 7.71315 15.1196 7.08774 15.8634 6.96691C16.793 8.31987 17.6372 9.73151 18.3911 11.1933ZM11.0942 1.05675C12.5817 2.61629 13.9593 4.28068 15.2167 6.03755C14.3916 6.34372 13.7654 7.04088 13.5396 7.90481C12.4274 8.05283 11.6141 9.04685 11.6723 10.1872C11.7304 11.3275 12.6405 12.2304 13.7618 12.2603H18.6463C18.7327 12.2584 18.819 12.2518 18.9047 12.2406C19.6129 13.7367 20.1692 15.3025 20.565 16.9136C18.1202 15.6551 15.3337 15.2596 12.6439 15.7895C11.7063 15.9575 10.7436 16.2163 9.81385 16.4692C6.91301 17.2539 4.16783 17.9886 1.77588 16.3176C2.00321 15.484 2.2758 14.6638 2.59241 13.8609H6.59227C7.46987 13.8615 8.27817 13.3756 8.70138 12.593C9.12458 11.8103 9.09553 10.8552 8.62556 10.1007C8.1556 9.34625 7.31931 8.91218 6.44343 8.96809C6.2507 8.58847 5.97384 8.2597 5.63476 8.00778C7.23632 5.52155 9.0642 3.19428 11.0942 1.05675ZM5.07241 8.91314C5.32751 9.11869 5.51612 9.39748 5.61379 9.7134C5.69603 9.99089 5.98086 10.1508 6.25528 10.0735C6.36515 10.0434 6.47848 10.0283 6.59227 10.0287C7.34194 10.0287 7.94966 10.6473 7.94966 11.4105C7.94966 12.1736 7.34194 12.7922 6.59227 12.7922H3.03842C3.63365 11.456 4.31306 10.1602 5.07241 8.91314ZM1.17108 19.7966C1.2283 18.9959 1.34162 18.2004 1.51017 17.4161C4.20766 19.0828 7.18973 18.282 10.0811 17.501C10.9915 17.255 11.9322 17.0011 12.8263 16.841C15.5898 16.2717 18.4625 16.8066 20.8491 18.3348C20.9809 19.1486 21.0488 19.9717 21.0519 20.7964C21.0519 23.5449 19.9556 26.1755 18.0141 28.0855C16.0726 29.9954 13.4524 31.021 10.7541 30.9271C8.09658 30.8313 5.59395 29.6304 3.83032 27.6045C1.94491 25.4737 0.985835 22.6581 1.17108 19.7966Z" fill="grey" fill-opacity="0.4"/>
<path d="M4.80525 24.0027C4.7998 24.3958 4.92296 24.7796 5.15534 25.0937C5.27244 25.2341 5.3344 25.4137 5.32934 25.5978C5.3364 25.7721 5.28046 25.9429 5.17212 26.078C4.95809 26.4037 4.93793 26.823 5.11971 27.1685C5.30529 27.5191 5.66658 27.7361 6.05783 27.7318C7.07735 27.7333 8.02434 27.1953 8.55826 26.3111C9.03113 26.5687 9.53282 26.7672 10.0524 26.9023C10.0893 27.2649 10.306 27.583 10.6267 27.7453C10.9474 27.9076 11.3274 27.8915 11.6336 27.7025L12.457 27.1983C15.058 27.1845 17.1685 26.1692 17.745 24.7693C17.7551 24.7492 17.764 24.7285 17.7718 24.7074C17.8594 24.4812 17.9054 24.2405 17.9075 23.9973C17.9075 22.2127 15.5176 20.8123 12.457 20.7963L11.6336 20.2927C11.3106 20.0924 10.9062 20.0869 10.5781 20.2783C10.2848 20.4481 10.0897 20.7513 10.054 21.0929C9.53587 21.2265 9.03555 21.4236 8.56403 21.6798C8.03142 20.7927 7.08279 20.2527 6.0615 20.2553H6.03162C5.64475 20.2581 5.29085 20.4776 5.11102 20.8263C4.93119 21.175 4.95468 21.5962 5.17212 21.922C5.28082 22.0548 5.33689 22.2241 5.32934 22.3968C5.33453 22.5811 5.27256 22.7609 5.15534 22.9015C4.92289 23.2194 4.79984 23.6064 4.80525 24.0027ZM6.02848 23.4921C6.48687 22.8471 6.49444 21.9776 6.04735 21.3245H6.06621C6.8734 21.3236 7.59084 21.8479 7.84812 22.6267C7.90192 22.7885 8.02855 22.9143 8.18875 22.9651C8.34895 23.0158 8.52334 22.9855 8.65784 22.8834C9.18396 22.5114 9.77591 22.2467 10.401 22.1039C10.8073 22.003 11.0935 21.6328 11.0943 21.2071L12.0508 21.7939C12.1343 21.844 12.2295 21.8704 12.3265 21.8702C12.3527 21.8721 12.379 21.8698 12.4046 21.8633C15.0297 21.8633 16.8593 22.9879 16.8593 23.9973H15.8111C15.5217 23.9973 15.2871 24.2362 15.2871 24.5308C15.2871 24.8255 15.5217 25.0643 15.8111 25.0643H16.2058C15.0882 25.8192 13.7644 26.1943 12.4245 26.1356C12.2961 26.1103 12.1631 26.134 12.0508 26.2023L11.0943 26.7875C11.0927 26.3618 10.8062 25.992 10.3999 25.8913C9.7726 25.7464 9.17816 25.4811 8.6484 25.1097C8.55869 25.0412 8.44976 25.0038 8.33762 25.003C8.28425 25.003 8.2312 25.0114 8.18039 25.028C8.021 25.0794 7.89523 25.205 7.84183 25.3663C7.57907 26.1477 6.85499 26.6706 6.04368 26.6648C6.26659 26.3559 6.38386 25.9811 6.37752 25.5978C6.38296 25.2026 6.25947 24.8166 6.02638 24.5004C5.91022 24.362 5.8486 24.1846 5.85343 24.0027C5.84892 23.8165 5.91115 23.635 6.02848 23.4921Z" fill="grey" fill-opacity="0.4"/>
<path d="M14.2389 23.9974C14.5283 23.9974 14.7629 23.7586 14.7629 23.4639C14.7629 23.1693 14.5283 22.9304 14.2389 22.9304C13.9494 22.9304 13.7148 23.1693 13.7148 23.4639C13.7148 23.7586 13.9494 23.9974 14.2389 23.9974Z" fill="grey" fill-opacity="0.4"/>
</svg>
